<svg xmlns="http://www.w3.org/2000/svg" viewBox="0 0 24 24" width="24" height="24">
  <defs>
    <linearGradient id="g" x1="0" y1="0" x2="24" y2="24" gradientUnits="userSpaceOnUse">
      <stop offset="0" stop-color="#0fa06f" />
      <stop offset="1" stop-color="#eab64a" />
    </linearGradient>
  </defs>
  <rect width="24" height="24" rx="6" fill="url(#g)" />
  <g fill="none" stroke="#ffffff" stroke-width="1.8" stroke-linecap="round" stroke-linejoin="round">
    <path d="M11 17h3v2a1 1 0 0 0 1 1h2a1 1 0 0 0 1-1v-3a3.16 3.16 0 0 0 2-2h1a1 1 0 0 0 1-1v-2a1 1 0 0 0-1-1h-1a5 5 0 0 0-2-4V3a4 4 0 0 0-3.2 1.6l-.3.4H11a6 6 0 0 0-6 6v1a5 5 0 0 0 2 4v3a1 1 0 0 0 1 1h2a1 1 0 0 0 1-1z" />
    <path d="M16 10h.01" />
    <path d="M2 8v1a2 2 0 0 0 2 2h1" />
  </g>
</svg>
